<?xml version="1.0" encoding="UTF-8" standalone="no"?>
<!DOCTYPE svg PUBLIC "-//W3C//DTD SVG 1.1//EN"
 "http://www.w3.org/Graphics/SVG/1.1/DTD/svg11.dtd">
<!-- Generated by graphviz version 14.1.1 (20251213.1925)
 -->
<!-- Title: G Pages: 1 -->
<svg width="1589pt" height="692pt"
 viewBox="0.00 0.00 1589.00 692.00" xmlns="http://www.w3.org/2000/svg" xmlns:xlink="http://www.w3.org/1999/xlink">
<g id="graph0" class="graph" transform="scale(1.33333 1.33333) rotate(0) translate(4 515.25)">
<title>G</title>
<polygon fill="white" stroke="none" points="-4,4 -4,-515.25 1188,-515.25 1188,4 -4,4"/>
<g id="clust1" class="cluster">
<title>cluster_[16]Water Jug Puzzle</title>
<polygon fill="none" stroke="black" points="8,-8 8,-503.25 1176,-503.25 1176,-8 8,-8"/>
<text xml:space="preserve" text-anchor="middle" x="592" y="-485.95" font-family="Times,serif" font-size="14.00">Water Jug Puzzle</text>
</g>
<!-- [16]Water Jug Puzzle[7]Playing -->
<g id="node1" class="node">
<title>[16]Water Jug Puzzle[7]Playing</title>
<path fill="white" stroke="black" d="M683.25,-470C683.25,-470 522.75,-470 522.75,-470 516.75,-470 510.75,-464 510.75,-458 510.75,-458 510.75,-416 510.75,-416 510.75,-410 516.75,-404 522.75,-404 522.75,-404 683.25,-404 683.25,-404 689.25,-404 695.25,-410 695.25,-416 695.25,-416 695.25,-458 695.25,-458 695.25,-464 689.25,-470 683.25,-470"/>
<text xml:space="preserve" text-anchor="start" x="577.12" y="-449.7" font-family="Helvetica,Arial,sans-serif" font-weight="bold" font-size="14.00">Playing</text>
<text xml:space="preserve" text-anchor="start" x="522.75" y="-419.7" font-family="Helvetica,Arial,sans-serif" font-size="14.00">prompt: prompt_playing</text>
</g>
<!-- [16]Water Jug Puzzle[7]Playing[7]Fill 3G -->
<g id="node2" class="node">
<title>[16]Water Jug Puzzle[7]Playing[7]Fill 3G</title>
<text xml:space="preserve" text-anchor="start" x="63.62" y="-349.7" font-family="Helvetica,Arial,sans-serif" font-weight="bold" font-size="14.00">Fill 3G</text>
<text xml:space="preserve" text-anchor="start" x="26.5" y="-323.7" font-family="Helvetica,Arial,sans-serif" font-size="14.00">when: can_fill_left</text>
<text xml:space="preserve" text-anchor="start" x="42.62" y="-298.7" font-family="Helvetica,Arial,sans-serif" font-size="14.00">trans: fill_left</text>
</g>
<!-- [16]Water Jug Puzzle[7]Playing&#45;&gt;[16]Water Jug Puzzle[7]Playing[7]Fill 3G -->
<g id="edge1" class="edge">
<title>[16]Water Jug Puzzle[7]Playing&#45;&gt;[16]Water Jug Puzzle[7]Playing[7]Fill 3G</title>
<path fill="none" stroke="blue" d="M510.39,-430.46C419.92,-423.03 279.26,-406.03 163,-368 159.81,-366.96 156.59,-365.79 153.37,-364.54"/>
</g>
<!-- [16]Water Jug Puzzle[7]Playing[7]Fill 5G -->
<g id="node3" class="node">
<title>[16]Water Jug Puzzle[7]Playing[7]Fill 5G</title>
<text xml:space="preserve" text-anchor="start" x="223.62" y="-349.7" font-family="Helvetica,Arial,sans-serif" font-weight="bold" font-size="14.00">Fill 5G</text>
<text xml:space="preserve" text-anchor="start" x="181.62" y="-323.7" font-family="Helvetica,Arial,sans-serif" font-size="14.00">when: can_fill_right</text>
<text xml:space="preserve" text-anchor="start" x="197.75" y="-298.7" font-family="Helvetica,Arial,sans-serif" font-size="14.00">trans: fill_right</text>
</g>
<!-- [16]Water Jug Puzzle[7]Playing&#45;&gt;[16]Water Jug Puzzle[7]Playing[7]Fill 5G -->
<g id="edge3" class="edge">
<title>[16]Water Jug Puzzle[7]Playing&#45;&gt;[16]Water Jug Puzzle[7]Playing[7]Fill 5G</title>
<path fill="none" stroke="blue" d="M510.51,-418.25C456.46,-406.61 387.41,-389.56 328,-368 324.68,-366.8 321.33,-365.5 317.96,-364.14"/>
</g>
<!-- [16]Water Jug Puzzle[7]Playing[8]Empty 3G -->
<g id="node4" class="node">
<title>[16]Water Jug Puzzle[7]Playing[8]Empty 3G</title>
<text xml:space="preserve" text-anchor="start" x="385" y="-349.7" font-family="Helvetica,Arial,sans-serif" font-weight="bold" font-size="14.00">Empty 3G</text>
<text xml:space="preserve" text-anchor="start" x="346.75" y="-323.7" font-family="Helvetica,Arial,sans-serif" font-size="14.00">when: can_empty_left</text>
<text xml:space="preserve" text-anchor="start" x="362.88" y="-298.7" font-family="Helvetica,Arial,sans-serif" font-size="14.00">trans: empty_left</text>
</g>
<!-- [16]Water Jug Puzzle[7]Playing&#45;&gt;[16]Water Jug Puzzle[7]Playing[8]Empty 3G -->
<g id="edge5" class="edge">
<title>[16]Water Jug Puzzle[7]Playing&#45;&gt;[16]Water Jug Puzzle[7]Playing[8]Empty 3G</title>
<path fill="none" stroke="blue" d="M547.74,-403.59C528.58,-392.35 506.85,-379.61 486.74,-367.81"/>
</g>
<!-- [16]Water Jug Puzzle[7]Playing[8]Empty 5G -->
<g id="node5" class="node">
<title>[16]Water Jug Puzzle[7]Playing[8]Empty 5G</title>
<text xml:space="preserve" text-anchor="start" x="570" y="-349.7" font-family="Helvetica,Arial,sans-serif" font-weight="bold" font-size="14.00">Empty 5G</text>
<text xml:space="preserve" text-anchor="start" x="526.88" y="-323.7" font-family="Helvetica,Arial,sans-serif" font-size="14.00">when: can_empty_right</text>
<text xml:space="preserve" text-anchor="start" x="543" y="-298.7" font-family="Helvetica,Arial,sans-serif" font-size="14.00">trans: empty_right</text>
</g>
<!-- [16]Water Jug Puzzle[7]Playing&#45;&gt;[16]Water Jug Puzzle[7]Playing[8]Empty 5G -->
<g id="edge7" class="edge">
<title>[16]Water Jug Puzzle[7]Playing&#45;&gt;[16]Water Jug Puzzle[7]Playing[8]Empty 5G</title>
<path fill="none" stroke="blue" d="M603,-403.74C603,-392.5 603,-379.74 603,-367.91"/>
</g>
<!-- [16]Water Jug Puzzle[7]Playing[13]Pour 3G &#45;&gt; 5G -->
<g id="node6" class="node">
<title>[16]Water Jug Puzzle[7]Playing[13]Pour 3G &#45;&gt; 5G</title>
<text xml:space="preserve" text-anchor="start" x="767.25" y="-349.7" font-family="Helvetica,Arial,sans-serif" font-weight="bold" font-size="14.00">Pour 3G &#45;&gt; 5G</text>
<text xml:space="preserve" text-anchor="start" x="717.38" y="-323.7" font-family="Helvetica,Arial,sans-serif" font-size="14.00">when: can_pour_left_to_right</text>
<text xml:space="preserve" text-anchor="start" x="733.5" y="-298.7" font-family="Helvetica,Arial,sans-serif" font-size="14.00">trans: pour_left_to_right</text>
</g>
<!-- [16]Water Jug Puzzle[7]Playing&#45;&gt;[16]Water Jug Puzzle[7]Playing[13]Pour 3G &#45;&gt; 5G -->
<g id="edge9" class="edge">
<title>[16]Water Jug Puzzle[7]Playing&#45;&gt;[16]Water Jug Puzzle[7]Playing[13]Pour 3G &#45;&gt; 5G</title>
<path fill="none" stroke="blue" d="M665.72,-403.59C687.48,-392.35 712.14,-379.61 734.97,-367.81"/>
</g>
<!-- [16]Water Jug Puzzle[7]Playing[13]Pour 5G &#45;&gt; 3G -->
<g id="node7" class="node">
<title>[16]Water Jug Puzzle[7]Playing[13]Pour 5G &#45;&gt; 3G</title>
<text xml:space="preserve" text-anchor="start" x="996.25" y="-349.7" font-family="Helvetica,Arial,sans-serif" font-weight="bold" font-size="14.00">Pour 5G &#45;&gt; 3G</text>
<text xml:space="preserve" text-anchor="start" x="946.38" y="-323.7" font-family="Helvetica,Arial,sans-serif" font-size="14.00">when: can_pour_right_to_left</text>
<text xml:space="preserve" text-anchor="start" x="962.5" y="-298.7" font-family="Helvetica,Arial,sans-serif" font-size="14.00">trans: pour_right_to_left</text>
</g>
<!-- [16]Water Jug Puzzle[7]Playing&#45;&gt;[16]Water Jug Puzzle[7]Playing[13]Pour 5G &#45;&gt; 3G -->
<g id="edge11" class="edge">
<title>[16]Water Jug Puzzle[7]Playing&#45;&gt;[16]Water Jug Puzzle[7]Playing[13]Pour 5G &#45;&gt; 3G</title>
<path fill="none" stroke="blue" d="M695.56,-420.08C761.03,-407.98 850.58,-389.74 928,-368 930.83,-367.2 933.69,-366.38 936.57,-365.52"/>
</g>
<!-- [16]Water Jug Puzzle[17]Check_Clear Clear -->
<g id="node8" class="node">
<title>[16]Water Jug Puzzle[17]Check_Clear Clear</title>
<path fill="white" stroke="black" d="M665.62,-249C665.62,-249 540.38,-249 540.38,-249 534.38,-249 528.38,-243 528.38,-237 528.38,-237 528.38,-224 528.38,-224 528.38,-218 534.38,-212 540.38,-212 540.38,-212 665.62,-212 665.62,-212 671.62,-212 677.62,-218 677.62,-224 677.62,-224 677.62,-237 677.62,-237 677.62,-243 671.62,-249 665.62,-249"/>
<text xml:space="preserve" text-anchor="start" x="540.38" y="-228.7" font-family="Helvetica,Arial,sans-serif" font-weight="bold" font-size="14.00">Check_Clear Clear</text>
</g>
<!-- [16]Water Jug Puzzle[7]Playing[7]Fill 3G&#45;&gt;[16]Water Jug Puzzle[17]Check_Clear Clear -->
<g id="edge2" class="edge">
<title>[16]Water Jug Puzzle[7]Playing[7]Fill 3G&#45;&gt;[16]Water Jug Puzzle[17]Check_Clear Clear</title>
<path fill="none" stroke="blue" d="M153.33,-288.33C156.56,-287.11 159.79,-285.99 163,-285 282.15,-248.15 426.78,-236.52 516.88,-232.94"/>
<polygon fill="blue" stroke="blue" points="516.76,-236.45 526.62,-232.58 516.5,-229.45 516.76,-236.45"/>
</g>
<!-- [16]Water Jug Puzzle[7]Playing[7]Fill 5G&#45;&gt;[16]Water Jug Puzzle[17]Check_Clear Clear -->
<g id="edge4" class="edge">
<title>[16]Water Jug Puzzle[7]Playing[7]Fill 5G&#45;&gt;[16]Water Jug Puzzle[17]Check_Clear Clear</title>
<path fill="none" stroke="blue" d="M318.34,-288.48C321.58,-287.24 324.81,-286.07 328,-285 389.7,-264.34 462.02,-250.67 517,-242.31"/>
<polygon fill="blue" stroke="blue" points="517.24,-245.82 526.61,-240.89 516.21,-238.89 517.24,-245.82"/>
</g>
<!-- [16]Water Jug Puzzle[7]Playing[8]Empty 3G&#45;&gt;[16]Water Jug Puzzle[17]Check_Clear Clear -->
<g id="edge6" class="edge">
<title>[16]Water Jug Puzzle[7]Playing[8]Empty 3G&#45;&gt;[16]Water Jug Puzzle[17]Check_Clear Clear</title>
<path fill="none" stroke="blue" d="M497.53,-285.09C518,-274.69 539.33,-263.85 557.41,-254.67"/>
<polygon fill="blue" stroke="blue" points="558.97,-257.8 566.3,-250.15 555.79,-251.56 558.97,-257.8"/>
</g>
<!-- [16]Water Jug Puzzle[7]Playing[8]Empty 5G&#45;&gt;[16]Water Jug Puzzle[17]Check_Clear Clear -->
<g id="edge8" class="edge">
<title>[16]Water Jug Puzzle[7]Playing[8]Empty 5G&#45;&gt;[16]Water Jug Puzzle[17]Check_Clear Clear</title>
<path fill="none" stroke="blue" d="M603,-285.09C603,-276.86 603,-268.36 603,-260.61"/>
<polygon fill="blue" stroke="blue" points="606.5,-260.74 603,-250.74 599.5,-260.74 606.5,-260.74"/>
</g>
<!-- [16]Water Jug Puzzle[7]Playing[13]Pour 3G &#45;&gt; 5G&#45;&gt;[16]Water Jug Puzzle[17]Check_Clear Clear -->
<g id="edge10" class="edge">
<title>[16]Water Jug Puzzle[7]Playing[13]Pour 3G &#45;&gt; 5G&#45;&gt;[16]Water Jug Puzzle[17]Check_Clear Clear</title>
<path fill="none" stroke="blue" d="M722.72,-285.09C699.06,-274.5 674.37,-263.45 653.61,-254.15"/>
<polygon fill="blue" stroke="blue" points="655.07,-250.97 644.51,-250.08 652.21,-257.36 655.07,-250.97"/>
</g>
<!-- [16]Water Jug Puzzle[7]Playing[13]Pour 5G &#45;&gt; 3G&#45;&gt;[16]Water Jug Puzzle[17]Check_Clear Clear -->
<g id="edge12" class="edge">
<title>[16]Water Jug Puzzle[7]Playing[13]Pour 5G &#45;&gt; 3G&#45;&gt;[16]Water Jug Puzzle[17]Check_Clear Clear</title>
<path fill="none" stroke="blue" d="M936.62,-287.32C933.72,-286.51 930.85,-285.73 928,-285 848.17,-264.43 755.19,-250.06 689.18,-241.43"/>
<polygon fill="blue" stroke="blue" points="689.87,-237.99 679.51,-240.18 688.98,-244.93 689.87,-237.99"/>
</g>
<!-- [16]Water Jug Puzzle[17]Check_Clear Clear[7]Not yet -->
<g id="node9" class="node">
<title>[16]Water Jug Puzzle[17]Check_Clear Clear[7]Not yet</title>
<text xml:space="preserve" text-anchor="start" x="901.88" y="-157.7" font-family="Helvetica,Arial,sans-serif" font-weight="bold" font-size="14.00">Not yet</text>
<text xml:space="preserve" text-anchor="start" x="867" y="-131.7" font-family="Helvetica,Arial,sans-serif" font-size="14.00">when: not_cleared</text>
</g>
<!-- [16]Water Jug Puzzle[17]Check_Clear Clear&#45;&gt;[16]Water Jug Puzzle[17]Check_Clear Clear[7]Not yet -->
<g id="edge13" class="edge">
<title>[16]Water Jug Puzzle[17]Check_Clear Clear&#45;&gt;[16]Water Jug Puzzle[17]Check_Clear Clear[7]Not yet</title>
<path fill="none" stroke="red" d="M674.5,-211.51C728.83,-197.85 803.14,-179.16 857.07,-165.59"/>
</g>
<!-- [16]Water Jug Puzzle[17]Check_Clear Clear[6]Clear! -->
<g id="node10" class="node">
<title>[16]Water Jug Puzzle[17]Check_Clear Clear[6]Clear!</title>
<text xml:space="preserve" text-anchor="start" x="582.38" y="-157.7" font-family="Helvetica,Arial,sans-serif" font-weight="bold" font-size="14.00">Clear!</text>
<text xml:space="preserve" text-anchor="start" x="548.62" y="-131.7" font-family="Helvetica,Arial,sans-serif" font-size="14.00">when: is_cleared</text>
</g>
<!-- [16]Water Jug Puzzle[17]Check_Clear Clear&#45;&gt;[16]Water Jug Puzzle[17]Check_Clear Clear[6]Clear! -->
<g id="edge15" class="edge">
<title>[16]Water Jug Puzzle[17]Check_Clear Clear&#45;&gt;[16]Water Jug Puzzle[17]Check_Clear Clear[6]Clear!</title>
<path fill="none" stroke="red" d="M603,-211.82C603,-201.33 603,-187.8 603,-175.91"/>
</g>
<!-- [16]Water Jug Puzzle[17]Check_Clear Clear[7]Not yet&#45;&gt;[16]Water Jug Puzzle[7]Playing -->
<g id="edge14" class="edge">
<title>[16]Water Jug Puzzle[17]Check_Clear Clear[7]Not yet&#45;&gt;[16]Water Jug Puzzle[7]Playing</title>
<path fill="none" stroke="red" d="M995.44,-175.97C1084.75,-216.31 1222.36,-294.13 1157,-368 1127.71,-401.1 858.82,-421.56 706.7,-430.58"/>
<polygon fill="red" stroke="red" points="706.79,-427.07 697.01,-431.15 707.2,-434.06 706.79,-427.07"/>
</g>
<!-- [16]Water Jug Puzzle[8]Cleared! -->
<g id="node11" class="node">
<title>[16]Water Jug Puzzle[8]Cleared!</title>
<path fill="white" stroke="black" d="M668.62,-82C668.62,-82 537.38,-82 537.38,-82 531.38,-82 525.38,-76 525.38,-70 525.38,-70 525.38,-28 525.38,-28 525.38,-22 531.38,-16 537.38,-16 537.38,-16 668.62,-16 668.62,-16 674.62,-16 680.62,-22 680.62,-28 680.62,-28 680.62,-70 680.62,-70 680.62,-76 674.62,-82 668.62,-82"/>
<text xml:space="preserve" text-anchor="start" x="573.75" y="-61.7" font-family="Helvetica,Arial,sans-serif" font-weight="bold" font-size="14.00">Cleared!</text>
<text xml:space="preserve" text-anchor="start" x="537.38" y="-31.7" font-family="Helvetica,Arial,sans-serif" font-size="14.00">trans: show_cleared</text>
</g>
<!-- [16]Water Jug Puzzle[17]Check_Clear Clear[6]Clear!&#45;&gt;[16]Water Jug Puzzle[8]Cleared! -->
<g id="edge16" class="edge">
<title>[16]Water Jug Puzzle[17]Check_Clear Clear[6]Clear!&#45;&gt;[16]Water Jug Puzzle[8]Cleared!</title>
<path fill="none" stroke="red" d="M603,-118.23C603,-110.63 603,-102.2 603,-93.93"/>
<polygon fill="red" stroke="red" points="606.5,-93.96 603,-83.96 599.5,-93.96 606.5,-93.96"/>
</g>
</g>
</svg>
